<svg width="18" height="15" viewBox="0 0 18 15" fill="none" xmlns="http://www.w3.org/2000/svg">
<mask id="path-1-inside-1_8148_8" fill="white">
<path d="M17.1066 2.62736C17.1066 1.71069 16.3566 0.960693 15.4399 0.960693H2.10661C1.18994 0.960693 0.439941 1.71069 0.439941 2.62736V12.6274C0.439941 13.544 1.18994 14.294 2.10661 14.294H15.4399C16.3566 14.294 17.1066 13.544 17.1066 12.6274V2.62736ZM15.4399 2.62736L8.77328 6.79403L2.10661 2.62736H15.4399ZM15.4399 12.6274H2.10661V4.29403L8.77328 8.46069L15.4399 4.29403V12.6274Z"/>
</mask>
<path d="M15.4399 2.62736L16.4999 4.32336L22.4135 0.62736H15.4399V2.62736ZM8.77328 6.79403L7.71328 8.49002L8.77328 9.15252L9.83327 8.49002L8.77328 6.79403ZM2.10661 2.62736V0.62736H-4.86698L1.04661 4.32336L2.10661 2.62736ZM15.4399 12.6274V14.6274H17.4399V12.6274H15.4399ZM2.10661 12.6274H0.106608V14.6274H2.10661V12.6274ZM2.10661 4.29403L3.16661 2.59803L0.106608 0.685531V4.29403H2.10661ZM8.77328 8.46069L7.71328 10.1567L8.77328 10.8192L9.83327 10.1567L8.77328 8.46069ZM15.4399 4.29403H17.4399V0.685531L14.3799 2.59803L15.4399 4.29403ZM19.1066 2.62736C19.1066 0.606124 17.4612 -1.03931 15.4399 -1.03931V2.96069C15.252 2.96069 15.1066 2.81526 15.1066 2.62736H19.1066ZM15.4399 -1.03931H2.10661V2.96069H15.4399V-1.03931ZM2.10661 -1.03931C0.0853721 -1.03931 -1.56006 0.606124 -1.56006 2.62736H2.43994C2.43994 2.81526 2.29451 2.96069 2.10661 2.96069V-1.03931ZM-1.56006 2.62736V12.6274H2.43994V2.62736H-1.56006ZM-1.56006 12.6274C-1.56006 14.6486 0.0853721 16.294 2.10661 16.294V12.294C2.29451 12.294 2.43994 12.4395 2.43994 12.6274H-1.56006ZM2.10661 16.294H15.4399V12.294H2.10661V16.294ZM15.4399 16.294C17.4612 16.294 19.1066 14.6486 19.1066 12.6274H15.1066C15.1066 12.4395 15.252 12.294 15.4399 12.294V16.294ZM19.1066 12.6274V2.62736H15.1066V12.6274H19.1066ZM14.3799 0.931363L7.71328 5.09803L9.83327 8.49002L16.4999 4.32336L14.3799 0.931363ZM9.83327 5.09803L3.16661 0.931363L1.04661 4.32336L7.71328 8.49002L9.83327 5.09803ZM2.10661 4.62736H15.4399V0.62736H2.10661V4.62736ZM15.4399 10.6274H2.10661V14.6274H15.4399V10.6274ZM4.10661 12.6274V4.29403H0.106608V12.6274H4.10661ZM1.04661 5.99002L7.71328 10.1567L9.83327 6.7647L3.16661 2.59803L1.04661 5.99002ZM9.83327 10.1567L16.4999 5.99002L14.3799 2.59803L7.71328 6.7647L9.83327 10.1567ZM13.4399 4.29403V12.6274H17.4399V4.29403H13.4399Z" fill="#BFBFBF" mask="url(#path-1-inside-1_8148_8)"/>
</svg>
