<svg width="32" height="32" viewBox="0 0 32 32" fill="none" xmlns="http://www.w3.org/2000/svg">
<rect width="32" height="32" rx="4" fill="#25262B"/>
<path d="M19.7633 12.2334C18.7966 11.2667 17.4699 10.6667 15.9966 10.6667C13.0499 10.6667 10.6699 13.0534 10.6699 16.0001C10.6699 18.9467 13.0499 21.3334 15.9966 21.3334C18.4833 21.3334 20.5566 19.6334 21.1499 17.3334H19.7633C19.2166 18.8867 17.7366 20.0001 15.9966 20.0001C13.7899 20.0001 11.9966 18.2067 11.9966 16.0001C11.9966 13.7934 13.7899 12.0001 15.9966 12.0001C17.1033 12.0001 18.0899 12.4601 18.8099 13.1867L16.6633 15.3334H21.3299V10.6667L19.7633 12.2334Z" fill="#F6F6F6"/>
</svg>
