<svg width="48" height="56" viewBox="0 0 48 56" fill="none" xmlns="http://www.w3.org/2000/svg">
<path d="M24 44C32.8366 44 40 36.8366 40 28C40 19.1634 32.8366 12 24 12C15.1634 12 8 19.1634 8 28C8 36.8366 15.1634 44 24 44Z" fill="#054F31"/>
<path d="M15.7685 34H14.3835L18.3892 23.0909H19.7528L23.7585 34H22.3736L19.1136 24.8168H19.0284L15.7685 34ZM16.2798 29.7386H21.8622V30.9105H16.2798V29.7386ZM31.4237 25.8182C31.3597 25.2784 31.1005 24.8594 30.646 24.5611C30.1914 24.2628 29.6339 24.1136 28.9734 24.1136C28.4904 24.1136 28.0678 24.1918 27.7056 24.348C27.3469 24.5043 27.0664 24.7191 26.864 24.9925C26.6651 25.266 26.5657 25.5767 26.5657 25.9247C26.5657 26.2159 26.6349 26.4663 26.7734 26.6758C26.9155 26.8817 27.0966 27.054 27.3168 27.1925C27.5369 27.3274 27.7678 27.4393 28.0092 27.5281C28.2507 27.6133 28.4727 27.6825 28.6751 27.7358L29.783 28.0341C30.0671 28.1087 30.3832 28.2116 30.7312 28.343C31.0827 28.4744 31.4183 28.6538 31.7379 28.881C32.0611 29.1048 32.3274 29.3924 32.5369 29.744C32.7464 30.0955 32.8512 30.527 32.8512 31.0384C32.8512 31.6278 32.6967 32.1605 32.3878 32.6364C32.0824 33.1122 31.6349 33.4904 31.0455 33.771C30.4595 34.0515 29.7475 34.1918 28.9094 34.1918C28.1282 34.1918 27.4517 34.0657 26.88 33.8136C26.3118 33.5614 25.8643 33.2099 25.5376 32.7589C25.2145 32.3079 25.0316 31.7841 24.989 31.1875H26.3526C26.3881 31.5994 26.5266 31.9403 26.7681 32.2102C27.0131 32.4766 27.3221 32.6754 27.695 32.8068C28.0714 32.9347 28.4762 32.9986 28.9094 32.9986C29.4137 32.9986 29.8665 32.9169 30.2678 32.7536C30.669 32.5866 30.9869 32.3558 31.2212 32.0611C31.4556 31.7628 31.5728 31.4148 31.5728 31.017C31.5728 30.6548 31.4716 30.3601 31.2692 30.1328C31.0668 29.9055 30.8004 29.7209 30.4702 29.5788C30.1399 29.4368 29.783 29.3125 29.3995 29.206L28.0572 28.8224C27.2049 28.5774 26.5302 28.2276 26.033 27.7731C25.5359 27.3185 25.2873 26.7237 25.2873 25.9886C25.2873 25.3778 25.4524 24.8452 25.7827 24.3906C26.1165 23.9325 26.5639 23.5774 27.125 23.3253C27.6896 23.0696 28.32 22.9418 29.016 22.9418C29.7191 22.9418 30.3441 23.0678 30.891 23.32C31.4379 23.5685 31.8711 23.9094 32.1907 24.3427C32.5138 24.7759 32.6843 25.2678 32.7021 25.8182H31.4237Z" fill="white"/>
</svg>
